<?xml version="1.0" standalone="no"?>
<!DOCTYPE svg PUBLIC "-//W3C//DTD SVG 20010904//EN"
 "http://www.w3.org/TR/2001/REC-SVG-20010904/DTD/svg10.dtd">
<svg version="1.0" xmlns="http://www.w3.org/2000/svg"
 width="640.000000pt" height="640.000000pt" viewBox="0 0 640.000000 640.000000"
 preserveAspectRatio="xMidYMid meet">
<metadata>
Created by potrace 1.14, written by Peter Selinger 2001-2017
</metadata>
<g transform="translate(0.000000,640.000000) scale(0.100000,-0.100000)"
fill="#000000" stroke="none">
<path d="M2999 5286 c-2 -2 -31 -7 -64 -9 -99 -9 -174 -26 -297 -67 -344 -115
-590 -314 -724 -585 -44 -90 -81 -212 -87 -288 -3 -36 -6 -41 -33 -44 -277
-31 -508 -138 -687 -317 -53 -54 -147 -175 -147 -191 0 -4 -8 -19 -19 -33 -23
-34 -65 -150 -80 -222 -18 -91 -19 -102 -20 -175 l-1 -70 -61 -3 c-55 -3 -102
-10 -164 -25 -132 -33 -286 -120 -385 -217 -87 -86 -140 -163 -180 -264 -38
-95 -49 -163 -46 -276 4 -112 17 -169 61 -267 117 -257 360 -427 670 -468 28
-4 53 -9 56 -11 3 -1 22 -36 42 -76 39 -77 77 -124 142 -174 171 -133 419
-134 590 -2 l50 38 18 -23 c168 -204 425 -353 677 -392 93 -14 315 -14 395 1
224 41 444 147 575 277 l45 45 47 -33 c303 -218 718 -143 917 165 22 33 41 66
43 71 2 5 37 -4 78 -21 41 -17 122 -43 180 -58 92 -23 126 -26 265 -26 167 0
226 8 358 50 421 133 701 478 711 875 l2 68 53 36 c198 136 341 335 397 550
27 105 25 314 -4 418 -104 366 -403 629 -812 712 -99 20 -273 26 -382 12 l-77
-9 -63 57 c-171 154 -391 251 -632 278 -23 3 -35 14 -59 58 -58 107 -153 222
-252 305 -201 171 -407 261 -735 319 -42 8 -354 17 -361 11z"/>
</g>
</svg>
